<svg width="14" height="14" viewBox="0 0 14 14" fill="none" xmlns="http://www.w3.org/2000/svg">
<path d="M10.2741 9.05124C11.1213 7.89509 11.5008 6.46167 11.3366 5.03775C11.1724 3.61382 10.4765 2.30441 9.38835 1.37148C8.30016 0.438546 6.89984 -0.0491064 5.46754 0.00608265C4.03524 0.0612717 2.6766 0.655232 1.66342 1.66913C0.650242 2.68304 0.0572532 4.04211 0.00308915 5.47445C-0.0510749 6.90678 0.43758 8.30676 1.37129 9.39428C2.305 10.4818 3.61491 11.1767 5.03895 11.3399C6.46299 11.5031 7.89614 11.1226 9.05168 10.2745H9.05081C9.07706 10.3095 9.10506 10.3427 9.13656 10.3751L12.5053 13.7439C12.6694 13.9081 12.892 14.0003 13.1241 14.0004C13.3562 14.0005 13.5788 13.9084 13.743 13.7443C13.9072 13.5802 13.9995 13.3577 13.9995 13.1255C13.9996 12.8934 13.9075 12.6708 13.7434 12.5066L10.3747 9.13787C10.3434 9.1062 10.3098 9.07695 10.2741 9.05037V9.05124ZM10.4998 5.68774C10.4998 6.31973 10.3753 6.94553 10.1335 7.5294C9.89163 8.11328 9.53714 8.64381 9.09026 9.09069C8.64338 9.53757 8.11285 9.89206 7.52897 10.1339C6.94509 10.3758 6.3193 10.5002 5.68731 10.5002C5.05532 10.5002 4.42952 10.3758 3.84565 10.1339C3.26177 9.89206 2.73124 9.53757 2.28436 9.09069C1.83748 8.64381 1.48299 8.11328 1.24114 7.5294C0.999288 6.94553 0.874809 6.31973 0.874809 5.68774C0.874809 4.41139 1.38184 3.18731 2.28436 2.28479C3.18688 1.38227 4.41095 0.875241 5.68731 0.875241C6.96366 0.875241 8.18774 1.38227 9.09026 2.28479C9.99278 3.18731 10.4998 4.41139 10.4998 5.68774Z" fill="#6B7280"/>
</svg>
