<svg width="14" height="14" viewBox="0 0 14 14" fill="none" xmlns="http://www.w3.org/2000/svg">
<path d="M5.03737 0.937111C5.08668 0.966635 5.12968 1.00558 5.16393 1.05173C5.19818 1.09788 5.223 1.15032 5.23697 1.20606C5.25095 1.2618 5.25381 1.31975 5.24538 1.37659C5.23696 1.43344 5.21742 1.48807 5.18787 1.53736L2.96012 5.24999H11.0399L8.81125 1.53736C8.75161 1.43781 8.73396 1.31864 8.76218 1.20607C8.79041 1.0935 8.86219 0.996752 8.96175 0.937111C9.06131 0.87747 9.18048 0.859821 9.29305 0.888045C9.40561 0.916269 9.50236 0.988055 9.562 1.08761L12.0601 5.24999H13.125C13.3571 5.24999 13.5796 5.34217 13.7437 5.50627C13.9078 5.67036 14 5.89292 14 6.12499V6.99999C14 7.23205 13.9078 7.45461 13.7437 7.6187C13.5796 7.7828 13.3571 7.87499 13.125 7.87499V11.8125C13.125 12.3926 12.8945 12.949 12.4843 13.3593C12.0741 13.7695 11.5177 14 10.9375 14H3.0625C2.48234 14 1.92594 13.7695 1.5157 13.3593C1.10547 12.949 0.875 12.3926 0.875 11.8125V7.87499C0.642936 7.87499 0.420376 7.7828 0.256282 7.6187C0.0921872 7.45461 0 7.23205 0 6.99999V6.12499C0 5.89292 0.0921872 5.67036 0.256282 5.50627C0.420376 5.34217 0.642936 5.24999 0.875 5.24999H1.93988L4.43625 1.08761C4.46577 1.03831 4.50472 0.995305 4.55087 0.961057C4.59701 0.92681 4.64946 0.901989 4.7052 0.888013C4.76094 0.874037 4.81889 0.87118 4.87573 0.879604C4.93258 0.888029 4.98721 0.90757 5.0365 0.937111H5.03737ZM1.75 7.87499V11.8125C1.75 12.1606 1.88828 12.4944 2.13442 12.7406C2.38056 12.9867 2.7144 13.125 3.0625 13.125H10.9375C11.2856 13.125 11.6194 12.9867 11.8656 12.7406C12.1117 12.4944 12.25 12.1606 12.25 11.8125V7.87499H1.75ZM0.875 6.12499V6.99999H13.125V6.12499H0.875ZM3.5 8.74999C3.61603 8.74999 3.72731 8.79608 3.80936 8.87813C3.89141 8.96017 3.9375 9.07145 3.9375 9.18749V11.8125C3.9375 11.9285 3.89141 12.0398 3.80936 12.1218C3.72731 12.2039 3.61603 12.25 3.5 12.25C3.38397 12.25 3.27269 12.2039 3.19064 12.1218C3.10859 12.0398 3.0625 11.9285 3.0625 11.8125V9.18749C3.0625 9.07145 3.10859 8.96017 3.19064 8.87813C3.27269 8.79608 3.38397 8.74999 3.5 8.74999ZM5.25 8.74999C5.36603 8.74999 5.47731 8.79608 5.55936 8.87813C5.64141 8.96017 5.6875 9.07145 5.6875 9.18749V11.8125C5.6875 11.9285 5.64141 12.0398 5.55936 12.1218C5.47731 12.2039 5.36603 12.25 5.25 12.25C5.13397 12.25 5.02269 12.2039 4.94064 12.1218C4.85859 12.0398 4.8125 11.9285 4.8125 11.8125V9.18749C4.8125 9.07145 4.85859 8.96017 4.94064 8.87813C5.02269 8.79608 5.13397 8.74999 5.25 8.74999ZM7 8.74999C7.11603 8.74999 7.22731 8.79608 7.30936 8.87813C7.39141 8.96017 7.4375 9.07145 7.4375 9.18749V11.8125C7.4375 11.9285 7.39141 12.0398 7.30936 12.1218C7.22731 12.2039 7.11603 12.25 7 12.25C6.88397 12.25 6.77269 12.2039 6.69064 12.1218C6.60859 12.0398 6.5625 11.9285 6.5625 11.8125V9.18749C6.5625 9.07145 6.60859 8.96017 6.69064 8.87813C6.77269 8.79608 6.88397 8.74999 7 8.74999ZM8.75 8.74999C8.86603 8.74999 8.97731 8.79608 9.05936 8.87813C9.14141 8.96017 9.1875 9.07145 9.1875 9.18749V11.8125C9.1875 11.9285 9.14141 12.0398 9.05936 12.1218C8.97731 12.2039 8.86603 12.25 8.75 12.25C8.63397 12.25 8.52269 12.2039 8.44064 12.1218C8.35859 12.0398 8.3125 11.9285 8.3125 11.8125V9.18749C8.3125 9.07145 8.35859 8.96017 8.44064 8.87813C8.52269 8.79608 8.63397 8.74999 8.75 8.74999ZM10.5 8.74999C10.616 8.74999 10.7273 8.79608 10.8094 8.87813C10.8914 8.96017 10.9375 9.07145 10.9375 9.18749V11.8125C10.9375 11.9285 10.8914 12.0398 10.8094 12.1218C10.7273 12.2039 10.616 12.25 10.5 12.25C10.384 12.25 10.2727 12.2039 10.1906 12.1218C10.1086 12.0398 10.0625 11.9285 10.0625 11.8125V9.18749C10.0625 9.07145 10.1086 8.96017 10.1906 8.87813C10.2727 8.79608 10.384 8.74999 10.5 8.74999Z" fill="#6B7280"/>
</svg>
